# xmcd CD database file
#
# Track frame offsets:
#	150
#	937
#	2824
#	3758
#	4993
#	6259
#	7152
#	7979
#	11012
#	12268
#	13150
#	13881
#	14765
#	15644
#	16315
#	17281
#	19031
#	20785
#	36941
#	37664
#	38466
#	39505
#	41582
#	42452
#	43297
#	55207
#	57995
#	58926
#	60108
#	61556
#	62773
#	63807
#	64955
#	66117
#	67252
#	70906
#	79367
#	81174
#	82366
#	83583
#	84806
#	88675
#	89806
#	90965
#	92019
#	93550
#	95134
#	96609
#	97504
#	98383
#	108148
#	110218
#	113015
#	115702
#	117059
#	118397
#	124002
#	125957
#	126889
#	127974
#	129613
#	130741
#	132059
#	133554
#	143775
#	146317
#	148536
#	150355
#	151421
#	153367
#	154161
#	154834
#	155676
#	156533
#	157320
#	158250
#	158938
#	160329
#	161263
#	161949
#	162944
#	163588
#	164284
#	165002
#	165887
#	166646
#	167401
#	168059
#	168741
#	169376
#	170652
#	172098
#	174458
#	176033
#	177649
#	179741
#
# Disc length: 2515 seconds
#
# Revision: 1
# Processed by: cddbd v1.5.2PL0 Copyright (c) Steve Scherf et al.
# Submitted via: CDex 2.21
#
DISCID=e009d160
DTITLE=Garrison Fewell - Jazz Improvisation for Guitar - A Harmonic Approach
DYEAR=2010
DGENRE=Jazz
TTITLE0=Fig. 1.3
TTITLE1=Fig. 1.4
TTITLE2=Fig. 1.6
TTITLE3=Fig. 1.10
TTITLE4=Fig. 1.11
TTITLE5=Fig. 1.12
TTITLE6=Fig. 1.13
TTITLE7=Fig. 1.14
TTITLE8=Fig. 2.3
TTITLE9=Fig. 2.5
TTITLE10=Fig. 2.6
TTITLE11=Fig. 2.7
TTITLE12=Fig. 2.9
TTITLE13=Fig. 2.12
TTITLE14=Fig. 2.18
TTITLE15=Fig. 2.21
TTITLE16=Fig. 2.23
TTITLE17=Fig. 2.25
TTITLE18=Fig. 3.8
TTITLE19=Fig. 3.10
TTITLE20=Fig. 3.12
TTITLE21=Fig. 3.13
TTITLE22=Fig. 3.15
TTITLE23=Fig. 3.16
TTITLE24=Fig. 3.17
TTITLE25=Fig. 4.6
TTITLE26=Fig. 4.8
TTITLE27=Fig. 4.9
TTITLE28=Fig. 4.10
TTITLE29=Fig. 4.11
TTITLE30=Fig. 4.12
TTITLE31=Fig. 4.13
TTITLE32=Fig. 4.14
TTITLE33=Fig. 4.15
TTITLE34=Fig. 4.16
TTITLE35=Fig. 4.17
TTITLE36=Fig. 5.6
TTITLE37=Fig. 5.7
TTITLE38=Fig. 5.8
TTITLE39=Fig. 5.9
TTITLE40=Fig. 5.10
TTITLE41=Fig. 6.9
TTITLE42=Fig. 6.12
TTITLE43=Fig. 6.14
TTITLE44=Fig. 6.16
TTITLE45=Fig. 6.18
TTITLE46=Fig. 6.21
TTITLE47=Fig. 6.22
TTITLE48=Fig. 6.23
TTITLE49=Fig. 6.28
TTITLE50=Fig. 7.3
TTITLE51=Fig. 7.4
TTITLE52=Fig. 7.10
TTITLE53=Fig. 7.11
TTITLE54=Fig. 7.12
TTITLE55=Fig. 7.13
TTITLE56=Fig. 8.7
TTITLE57=Fig. 8.9
TTITLE58=Fig. 8.16
TTITLE59=Fig. 8.17
TTITLE60=Fig. 8.18
TTITLE61=Fig. 8.19
TTITLE62=Fig. 8.20
TTITLE63=Fig. 8.30
TTITLE64=Fig. 9.3
TTITLE65=Fig. 9.6
TTITLE66=Fig. 9.7
TTITLE67=Fig. 10.3
TTITLE68=Fig. 10.6
TTITLE69=Fig. 11.2
TTITLE70=Fig. 11.3
TTITLE71=Fig. 11.5
TTITLE72=Fig. 11.6
TTITLE73=Fig. 11.8
TTITLE74=Fig. 11.9
TTITLE75=Fig. 11.10
TTITLE76=Fig. 11.11
TTITLE77=Fig. 11.14
TTITLE78=Fig. 11.16
TTITLE79=Fig. 11.18
TTITLE80=Fig. 11.22
TTITLE81=Fig. 11.23
TTITLE82=Fig. 11.28
TTITLE83=Fig. 11.29
TTITLE84=Fig. 11.31
TTITLE85=Fig. 11.32
TTITLE86=Fig. 11.33
TTITLE87=Fig. 11.34
TTITLE88=Fig. 11.37
TTITLE89=Fig. 12.2
TTITLE90=Fig. 12.4
TTITLE91=Fig. 12.5
TTITLE92=Fig. 12.6
TTITLE93=Fig. 12.7
TTITLE94=Fig. 12.10
TTITLE95=Bonus Track Ocean's One
EXTD=YEAR: 2010
EXTT0=
EXTT1=
EXTT2=
EXTT3=
EXTT4=
EXTT5=
EXTT6=
EXTT7=
EXTT8=
EXTT9=
EXTT10=
EXTT11=
EXTT12=
EXTT13=
EXTT14=
EXTT15=
EXTT16=
EXTT17=
EXTT18=
EXTT19=
EXTT20=
EXTT21=
EXTT22=
EXTT23=
EXTT24=
EXTT25=
EXTT26=
EXTT27=
EXTT28=
EXTT29=
EXTT30=
EXTT31=
EXTT32=
EXTT33=
EXTT34=
EXTT35=
EXTT36=
EXTT37=
EXTT38=
EXTT39=
EXTT40=
EXTT41=
EXTT42=
EXTT43=
EXTT44=
EXTT45=
EXTT46=
EXTT47=
EXTT48=
EXTT49=
EXTT50=
EXTT51=
EXTT52=
EXTT53=
EXTT54=
EXTT55=
EXTT56=
EXTT57=
EXTT58=
EXTT59=
EXTT60=
EXTT61=
EXTT62=
EXTT63=
EXTT64=
EXTT65=
EXTT66=
EXTT67=
EXTT68=
EXTT69=
EXTT70=
EXTT71=
EXTT72=
EXTT73=
EXTT74=
EXTT75=
EXTT76=
EXTT77=
EXTT78=
EXTT79=
EXTT80=
EXTT81=
EXTT82=
EXTT83=
EXTT84=
EXTT85=
EXTT86=
EXTT87=
EXTT88=
EXTT89=
EXTT90=
EXTT91=
EXTT92=
EXTT93=
EXTT94=
EXTT95=
PLAYORDER=
